<svg xmlns="http://www.w3.org/2000/svg" width="24" height="24" fill="currentColor" viewBox="0 0 24 24">
  <path fill-rule="evenodd" d="M11 4V3a1 1 0 1 1 2 0v1h2a4.002 4.002 0 0 1 3.877 3.01c.136.535-.325.99-.877.99s-.98-.475-1.244-.959A2 2 0 0 0 15 6h-2v5h1.5a4.5 4.5 0 1 1 0 9H13v1a1 1 0 1 1-2 0v-1H9a4.002 4.002 0 0 1-3.877-3.01c-.136-.535.325-.99.877-.99s.98.474 1.244.959A2 2 0 0 0 9 18h2v-5H9.5a4.5 4.5 0 1 1 0-9H11Zm0 7V6H9.5a2.5 2.5 0 0 0 0 5H11Zm2 2v5h1.5a2.5 2.5 0 0 0 0-5H13Z" clip-rule="evenodd"/>
</svg>
