<svg xmlns="http://www.w3.org/2000/svg" xmlns:xlink="http://www.w3.org/1999/xlink" width="40" zoomAndPan="magnify" viewBox="0 0 30 30.000001" height="40" preserveAspectRatio="xMidYMid meet" version="1.0"><defs><clipPath id="8f4ebf8e32"><path d="M 1.445312 0 L 28.300781 0 L 28.300781 29.03125 L 1.445312 29.03125 Z M 1.445312 0 " clip-rule="nonzero"/></clipPath></defs><g clip-path="url(#8f4ebf8e32)"><path fill="#000000" d="M 27.113281 13.5 C 26.28125 6.621094 22.375 1.808594 16.96875 0.839844 C 16.425781 0.324219 15.6875 0 14.890625 0 C 14.089844 0 13.351562 0.324219 12.808594 0.839844 C 7.371094 1.808594 3.5 6.652344 2.667969 13.5 L 1.546875 22.800781 C 1.515625 23.027344 1.675781 23.25 1.898438 23.316406 C 3.019531 23.640625 4.136719 23.929688 5.195312 24.15625 C 5.128906 24.511719 5.066406 24.898438 5.066406 25.285156 L 5.066406 27.871094 C 5.066406 28.515625 5.578125 29.03125 6.21875 29.03125 L 23.527344 29.03125 C 24.167969 29.03125 24.679688 28.515625 24.679688 27.871094 L 24.679688 25.285156 C 24.679688 24.898438 24.648438 24.511719 24.550781 24.15625 C 25.640625 23.929688 26.757812 23.640625 27.847656 23.316406 C 28.070312 23.25 28.230469 23.027344 28.199219 22.800781 Z M 16.96875 2.90625 C 16.328125 2.679688 15.625 2.550781 14.890625 2.550781 C 14.152344 2.550781 13.480469 2.679688 12.808594 2.90625 C 12.90625 1.839844 13.800781 0.96875 14.890625 0.96875 C 15.976562 0.96875 16.871094 1.808594 16.96875 2.90625 Z M 14.890625 17.695312 C 12.359375 17.695312 10.28125 15.628906 10.28125 13.046875 L 10.28125 11.171875 C 11.464844 11.042969 12.457031 10.464844 13.066406 9.496094 C 14.890625 10.558594 17.03125 11.109375 19.464844 11.171875 L 19.464844 13.046875 C 19.496094 15.628906 17.417969 17.695312 14.890625 17.695312 Z M 8.648438 11.207031 L 9.320312 11.207031 L 9.320312 12.496094 L 8.648438 12.496094 C 8.296875 12.496094 8.007812 12.207031 8.007812 11.851562 C 8.007812 11.496094 8.296875 11.207031 8.648438 11.207031 Z M 21.128906 12.53125 L 20.457031 12.53125 L 20.457031 11.238281 L 21.128906 11.238281 C 21.480469 11.238281 21.769531 11.527344 21.769531 11.882812 C 21.769531 12.238281 21.480469 12.53125 21.128906 12.53125 Z M 20.648438 10.238281 L 19.976562 10.238281 C 17.320312 10.238281 15.015625 9.625 13.160156 8.429688 C 13.097656 8.363281 13 8.363281 12.90625 8.363281 C 12.875 8.363281 12.808594 8.363281 12.777344 8.394531 C 12.648438 8.429688 12.519531 8.527344 12.488281 8.65625 C 12.007812 9.6875 11.050781 10.269531 9.832031 10.269531 L 9.128906 10.269531 L 9.128906 9.460938 C 9.128906 6.199219 11.722656 3.550781 14.890625 3.550781 C 18.058594 3.550781 20.648438 6.199219 20.648438 9.460938 Z M 2.539062 22.507812 L 3.625 13.597656 C 4.363281 7.589844 7.53125 3.230469 12.042969 1.96875 C 11.914062 2.292969 11.847656 2.648438 11.847656 3.035156 C 11.847656 3.101562 11.847656 3.195312 11.847656 3.261719 C 9.671875 4.457031 8.167969 6.78125 8.167969 9.460938 L 8.167969 10.335938 C 7.53125 10.527344 7.050781 11.140625 7.050781 11.882812 C 7.050781 12.660156 7.59375 13.304688 8.328125 13.464844 C 7.65625 14.242188 7.753906 15.082031 7.851562 15.824219 C 7.945312 16.566406 8.007812 17.179688 7.402344 17.761719 C 7.210938 17.957031 7.210938 18.246094 7.402344 18.441406 C 7.496094 18.535156 7.625 18.601562 7.753906 18.601562 C 7.882812 18.601562 7.976562 18.570312 8.074219 18.472656 C 9.035156 17.566406 8.90625 16.535156 8.808594 15.726562 C 8.714844 14.917969 8.648438 14.371094 9.386719 13.820312 C 9.609375 15.597656 10.664062 17.117188 12.167969 17.988281 L 12.167969 19.988281 L 10.410156 19.988281 C 8.203125 19.988281 6.28125 21.347656 5.480469 23.316406 C 4.523438 23.027344 3.53125 22.800781 2.539062 22.507812 Z M 20.488281 28.097656 L 9.289062 28.097656 L 9.289062 26.191406 C 9.289062 24.769531 10.410156 24.382812 10.890625 24.285156 C 12.167969 24.027344 13.863281 24.609375 14.441406 26.0625 C 14.503906 26.253906 14.695312 26.351562 14.890625 26.351562 C 15.082031 26.351562 15.273438 26.222656 15.335938 26.0625 C 15.914062 24.640625 17.609375 24.027344 18.886719 24.285156 C 19.367188 24.382812 20.488281 24.769531 20.488281 26.191406 Z M 23.753906 27.902344 C 23.753906 28 23.65625 28.097656 23.558594 28.097656 L 21.480469 28.097656 L 21.480469 26.191406 C 21.480469 24.738281 20.550781 23.640625 19.082031 23.347656 C 17.671875 23.058594 15.882812 23.574219 14.890625 24.898438 C 13.898438 23.574219 12.105469 23.058594 10.699219 23.347656 C 9.226562 23.640625 8.296875 24.738281 8.296875 26.191406 L 8.296875 28.097656 L 6.21875 28.097656 C 6.121094 28.097656 6.027344 28 6.027344 27.902344 L 6.027344 25.320312 C 6.027344 22.894531 7.976562 20.894531 10.410156 20.894531 L 12.648438 20.894531 C 12.90625 20.894531 13.128906 20.667969 13.128906 20.410156 L 13.128906 18.375 C 13.671875 18.570312 14.28125 18.664062 14.890625 18.664062 C 15.496094 18.664062 16.105469 18.570312 16.648438 18.375 L 16.648438 20.410156 C 16.648438 20.667969 16.871094 20.894531 17.128906 20.894531 L 19.367188 20.894531 C 21.769531 20.894531 23.753906 22.863281 23.753906 25.320312 Z M 24.296875 23.25 C 23.496094 21.3125 21.578125 19.957031 19.367188 19.957031 L 17.609375 19.957031 L 17.609375 17.957031 C 19.113281 17.117188 20.167969 15.597656 20.390625 13.789062 C 21.128906 14.304688 21.0625 14.886719 20.96875 15.695312 C 20.871094 16.503906 20.746094 17.535156 21.703125 18.441406 C 21.800781 18.535156 21.929688 18.570312 22.023438 18.570312 C 22.152344 18.570312 22.28125 18.503906 22.375 18.40625 C 22.566406 18.214844 22.566406 17.921875 22.375 17.730469 C 21.769531 17.148438 21.832031 16.566406 21.929688 15.792969 C 22.023438 15.050781 22.121094 14.210938 21.449219 13.433594 C 22.183594 13.273438 22.726562 12.625 22.726562 11.851562 C 22.726562 11.140625 22.25 10.527344 21.609375 10.300781 L 21.609375 9.429688 C 21.609375 6.75 20.105469 4.425781 17.929688 3.292969 C 17.929688 3.195312 17.929688 3.132812 17.929688 3.035156 C 17.929688 2.648438 17.863281 2.292969 17.738281 1.96875 C 22.25 3.230469 25.414062 7.558594 26.152344 13.597656 L 27.238281 22.507812 C 26.246094 22.800781 25.257812 23.027344 24.296875 23.25 Z M 24.296875 23.25 " fill-opacity="1" fill-rule="nonzero"/></g></svg>