<svg xmlns="http://www.w3.org/2000/svg" xmlns:xlink="http://www.w3.org/1999/xlink" width="40" zoomAndPan="magnify" viewBox="0 0 30 30.000001" height="40" preserveAspectRatio="xMidYMid meet" version="1.0"><defs><clipPath id="55d26ca8fd"><path d="M 1.140625 0.316406 L 29.445312 0.316406 L 29.445312 28.621094 L 1.140625 28.621094 Z M 1.140625 0.316406 " clip-rule="nonzero"/></clipPath></defs><g clip-path="url(#55d26ca8fd)"><path fill="#000000" d="M 15.296875 7.238281 Z M 20.714844 17.289062 C 20.871094 17.445312 20.964844 17.660156 20.964844 17.898438 L 20.964844 27.535156 C 20.964844 27.773438 20.863281 27.988281 20.714844 28.144531 C 20.554688 28.304688 20.339844 28.394531 20.105469 28.394531 L 10.207031 28.394531 C 9.972656 28.394531 9.757812 28.296875 9.597656 28.144531 C 9.441406 27.988281 9.347656 27.773438 9.347656 27.535156 L 9.347656 17.898438 C 9.347656 17.660156 9.449219 17.445312 9.597656 17.289062 C 9.75 17.128906 9.972656 17.035156 10.207031 17.035156 L 11.976562 17.035156 L 11.976562 17.03125 C 11.976562 16.863281 12.042969 16.722656 12.148438 16.613281 C 12.257812 16.507812 12.402344 16.441406 12.566406 16.441406 L 13.28125 16.441406 L 13.28125 15.984375 C 13.132812 15.984375 12.980469 15.984375 12.832031 15.984375 C 12.773438 15.984375 12.722656 15.933594 12.722656 15.875 L 12.972656 8.035156 C 12.972656 7.792969 13.253906 7.582031 13.699219 7.441406 C 14.105469 7.3125 14.671875 7.230469 15.296875 7.230469 C 15.746094 7.230469 16.171875 7.273438 16.527344 7.347656 C 16.527344 7.347656 16.535156 7.347656 16.535156 7.347656 C 16.664062 7.375 16.785156 7.40625 16.894531 7.441406 C 17.339844 7.582031 17.617188 7.792969 17.617188 8.035156 L 17.867188 15.867188 C 17.867188 15.925781 17.824219 15.976562 17.769531 15.976562 C 17.523438 15.984375 17.273438 15.984375 17.03125 15.984375 L 17.03125 16.433594 L 17.746094 16.433594 C 17.910156 16.433594 18.054688 16.5 18.164062 16.605469 C 18.269531 16.714844 18.335938 16.855469 18.335938 17.023438 L 18.335938 17.03125 L 20.105469 17.03125 C 20.339844 17.035156 20.554688 17.136719 20.714844 17.289062 Z M 14.449219 18.535156 L 11.046875 18.535156 L 11.046875 25.574219 C 11.046875 25.789062 11.132812 25.988281 11.277344 26.132812 C 11.417969 26.273438 11.621094 26.359375 11.835938 26.359375 L 18.472656 26.359375 C 18.6875 26.359375 18.878906 26.273438 19.023438 26.132812 L 19.03125 26.125 C 19.171875 25.980469 19.257812 25.78125 19.257812 25.566406 L 19.257812 18.535156 L 15.855469 18.535156 C 15.796875 18.535156 15.746094 18.484375 15.746094 18.425781 L 15.746094 15.988281 C 15.347656 15.988281 14.945312 15.988281 14.542969 15.984375 L 14.542969 18.417969 C 14.558594 18.492188 14.507812 18.535156 14.449219 18.535156 Z M 12.9375 15.769531 L 17.652344 15.769531 L 17.402344 8.035156 C 17.402344 7.898438 17.179688 7.753906 16.828125 7.648438 C 16.765625 7.625 16.695312 7.605469 16.613281 7.589844 C 16.613281 7.847656 16.609375 13.855469 16.609375 13.855469 C 16.609375 13.910156 16.558594 13.960938 16.5 13.960938 C 16.441406 13.960938 16.394531 13.910156 16.394531 13.855469 L 16.398438 7.546875 C 16.078125 7.492188 15.699219 7.453125 15.289062 7.453125 C 14.6875 7.453125 14.140625 7.535156 13.753906 7.65625 C 13.402344 7.761719 13.183594 7.90625 13.183594 8.042969 Z M 20.757812 17.898438 C 20.757812 17.71875 20.6875 17.550781 20.5625 17.4375 C 20.449219 17.324219 20.285156 17.246094 20.105469 17.246094 L 18.226562 17.246094 C 18.171875 17.246094 18.121094 17.195312 18.121094 17.136719 L 18.121094 17.023438 C 18.121094 16.921875 18.078125 16.828125 18.011719 16.757812 C 17.949219 16.691406 17.847656 16.648438 17.746094 16.648438 L 16.921875 16.648438 C 16.867188 16.648438 16.816406 16.597656 16.816406 16.542969 L 16.816406 15.984375 C 16.535156 15.984375 16.25 15.984375 15.96875 15.984375 L 15.96875 18.3125 L 19.375 18.3125 C 19.429688 18.3125 19.480469 18.363281 19.480469 18.417969 L 19.480469 25.566406 C 19.480469 25.84375 19.367188 26.09375 19.1875 26.273438 L 19.179688 26.28125 C 19 26.460938 18.75 26.570312 18.476562 26.570312 L 11.835938 26.570312 C 11.554688 26.570312 11.304688 26.453125 11.125 26.273438 C 10.945312 26.09375 10.832031 25.84375 10.832031 25.566406 L 10.832031 18.425781 C 10.832031 18.371094 10.882812 18.320312 10.9375 18.320312 L 14.34375 18.320312 L 14.34375 15.984375 C 14.054688 15.984375 13.777344 15.984375 13.496094 15.976562 L 13.496094 16.542969 C 13.496094 16.597656 13.445312 16.648438 13.390625 16.648438 L 12.566406 16.648438 C 12.464844 16.648438 12.371094 16.691406 12.300781 16.757812 C 12.234375 16.820312 12.191406 16.921875 12.191406 17.023438 L 12.191406 17.136719 C 12.191406 17.195312 12.144531 17.246094 12.085938 17.246094 L 10.207031 17.246094 C 10.027344 17.246094 9.863281 17.316406 9.75 17.4375 C 9.632812 17.550781 9.554688 17.71875 9.554688 17.898438 L 9.554688 27.535156 C 9.554688 27.714844 9.628906 27.878906 9.75 27.996094 C 9.863281 28.109375 10.027344 28.1875 10.207031 28.1875 L 20.105469 28.1875 C 20.285156 28.1875 20.449219 28.117188 20.5625 27.996094 C 20.679688 27.878906 20.757812 27.714844 20.757812 27.535156 Z M 26.191406 22.191406 C 26.148438 22.148438 26.082031 22.148438 26.039062 22.191406 L 24.46875 23.75 L 24.46875 22.976562 C 24.46875 22.921875 24.417969 22.871094 24.363281 22.871094 C 24.304688 22.871094 24.253906 22.921875 24.253906 22.976562 L 24.253906 23.75 L 22.691406 22.191406 C 22.648438 22.148438 22.585938 22.148438 22.542969 22.191406 C 22.5 22.234375 22.5 22.296875 22.542969 22.339844 L 24.105469 23.902344 L 23.332031 23.902344 C 23.273438 23.902344 23.222656 23.953125 23.222656 24.011719 C 23.222656 24.066406 23.273438 24.117188 23.332031 24.117188 L 24.105469 24.117188 L 22.542969 25.679688 C 22.5 25.722656 22.5 25.789062 22.542969 25.832031 C 22.585938 25.875 22.648438 25.875 22.691406 25.832031 L 24.253906 24.269531 L 24.253906 25.042969 C 24.253906 25.097656 24.304688 25.148438 24.363281 25.148438 C 24.417969 25.148438 24.46875 25.097656 24.46875 25.042969 L 24.46875 24.269531 L 26.03125 25.832031 C 26.074219 25.875 26.140625 25.875 26.183594 25.832031 C 26.226562 25.789062 26.226562 25.722656 26.183594 25.679688 L 24.621094 24.117188 L 25.394531 24.117188 C 25.453125 24.117188 25.5 24.066406 25.5 24.011719 C 25.5 23.953125 25.453125 23.902344 25.394531 23.902344 L 24.621094 23.902344 L 26.183594 22.339844 C 26.226562 22.296875 26.226562 22.234375 26.191406 22.191406 Z M 10.867188 5.367188 C 10.910156 5.410156 10.972656 5.410156 11.015625 5.367188 L 12.578125 3.804688 L 12.578125 4.582031 C 12.578125 4.636719 12.628906 4.6875 12.6875 4.6875 C 12.746094 4.6875 12.796875 4.636719 12.796875 4.582031 L 12.796875 3.804688 C 13.605469 4.617188 14.355469 5.367188 14.355469 5.367188 C 14.398438 5.410156 14.464844 5.410156 14.507812 5.367188 C 14.550781 5.324219 14.550781 5.261719 14.507812 5.21875 L 12.945312 3.65625 L 13.71875 3.65625 C 13.777344 3.65625 13.828125 3.605469 13.828125 3.546875 C 13.828125 3.492188 13.777344 3.441406 13.71875 3.441406 L 12.945312 3.441406 L 14.507812 1.878906 C 14.550781 1.835938 14.550781 1.769531 14.507812 1.726562 C 14.464844 1.683594 14.398438 1.683594 14.355469 1.726562 L 12.796875 3.289062 L 12.796875 2.515625 C 12.796875 2.460938 12.746094 2.410156 12.6875 2.410156 C 12.628906 2.410156 12.578125 2.460938 12.578125 2.515625 L 12.578125 3.289062 L 11.015625 1.726562 C 10.972656 1.683594 10.910156 1.683594 10.867188 1.726562 C 10.824219 1.769531 10.824219 1.835938 10.867188 1.878906 C 10.867188 1.878906 11.625 2.636719 12.429688 3.441406 L 11.65625 3.441406 C 11.597656 3.441406 11.546875 3.492188 11.546875 3.546875 C 11.546875 3.605469 11.597656 3.65625 11.65625 3.65625 L 12.429688 3.65625 L 10.867188 5.21875 C 10.832031 5.261719 10.832031 5.324219 10.867188 5.367188 Z M 2.890625 23.421875 C 2.832031 23.421875 2.78125 23.472656 2.78125 23.53125 L 2.78125 24.167969 C 2.78125 24.226562 2.832031 24.273438 2.890625 24.273438 C 2.949219 24.273438 2.996094 24.226562 2.996094 24.167969 L 2.996094 23.53125 C 2.996094 23.472656 2.953125 23.421875 2.890625 23.421875 Z M 2.890625 26.050781 C 2.832031 26.050781 2.78125 26.101562 2.78125 26.160156 L 2.78125 26.796875 C 2.78125 26.855469 2.832031 26.90625 2.890625 26.90625 C 2.949219 26.90625 2.996094 26.855469 2.996094 26.796875 L 2.996094 26.160156 C 2.996094 26.09375 2.953125 26.050781 2.890625 26.050781 Z M 4.523438 25.054688 L 3.886719 25.054688 C 3.828125 25.054688 3.777344 25.105469 3.777344 25.164062 C 3.777344 25.222656 3.828125 25.269531 3.886719 25.269531 L 4.523438 25.269531 C 4.582031 25.269531 4.632812 25.222656 4.632812 25.164062 C 4.632812 25.105469 4.582031 25.054688 4.523438 25.054688 Z M 1.902344 25.054688 L 1.261719 25.054688 C 1.207031 25.054688 1.15625 25.105469 1.15625 25.164062 C 1.15625 25.222656 1.207031 25.269531 1.261719 25.269531 L 1.902344 25.269531 C 1.957031 25.269531 2.007812 25.222656 2.007812 25.164062 C 2.007812 25.105469 1.957031 25.054688 1.902344 25.054688 Z M 26.707031 3.761719 C 26.761719 3.761719 26.8125 3.714844 26.8125 3.65625 L 26.8125 3.019531 C 26.8125 2.960938 26.761719 2.910156 26.707031 2.910156 C 26.648438 2.910156 26.597656 2.960938 26.597656 3.019531 L 26.597656 3.65625 C 26.597656 3.714844 26.648438 3.761719 26.707031 3.761719 Z M 26.707031 6.386719 C 26.761719 6.386719 26.8125 6.335938 26.8125 6.277344 L 26.8125 5.640625 C 26.8125 5.582031 26.761719 5.535156 26.707031 5.535156 C 26.648438 5.535156 26.597656 5.582031 26.597656 5.640625 L 26.597656 6.277344 C 26.597656 6.335938 26.648438 6.386719 26.707031 6.386719 Z M 27.695312 4.753906 L 28.332031 4.753906 C 28.390625 4.753906 28.441406 4.703125 28.441406 4.644531 C 28.441406 4.585938 28.390625 4.539062 28.332031 4.539062 L 27.695312 4.539062 C 27.636719 4.539062 27.585938 4.585938 27.585938 4.644531 C 27.585938 4.710938 27.636719 4.753906 27.695312 4.753906 Z M 25.070312 4.753906 L 25.710938 4.753906 C 25.765625 4.753906 25.816406 4.703125 25.816406 4.644531 C 25.816406 4.585938 25.765625 4.539062 25.710938 4.539062 L 25.070312 4.539062 C 25.015625 4.539062 24.964844 4.585938 24.964844 4.644531 C 24.964844 4.710938 25.015625 4.753906 25.070312 4.753906 Z M 6.417969 21.15625 Z M 6.804688 21.324219 C 6.898438 21.421875 6.953125 21.550781 6.953125 21.695312 C 6.953125 21.84375 6.898438 21.980469 6.796875 22.074219 C 6.695312 22.175781 6.566406 22.234375 6.417969 22.234375 C 6.265625 22.234375 6.128906 22.175781 6.035156 22.074219 C 5.9375 21.972656 5.878906 21.84375 5.878906 21.695312 C 5.878906 21.542969 5.9375 21.410156 6.035156 21.316406 C 6.136719 21.214844 6.265625 21.15625 6.417969 21.15625 C 6.566406 21.15625 6.703125 21.214844 6.804688 21.324219 Z M 6.746094 21.695312 C 6.746094 21.609375 6.710938 21.53125 6.652344 21.464844 L 6.644531 21.457031 C 6.589844 21.402344 6.503906 21.367188 6.417969 21.367188 C 6.332031 21.367188 6.246094 21.402344 6.1875 21.457031 C 6.128906 21.515625 6.09375 21.601562 6.09375 21.6875 C 6.09375 21.78125 6.128906 21.859375 6.1875 21.917969 C 6.246094 21.972656 6.332031 22.011719 6.417969 22.011719 C 6.507812 22.011719 6.589844 21.972656 6.644531 21.917969 C 6.710938 21.867188 6.746094 21.789062 6.746094 21.695312 Z M 24.046875 8.09375 C 23.945312 7.992188 23.890625 7.863281 23.890625 7.710938 C 23.890625 7.5625 23.945312 7.425781 24.046875 7.332031 C 24.148438 7.230469 24.277344 7.175781 24.425781 7.175781 C 24.578125 7.175781 24.714844 7.230469 24.804688 7.332031 L 24.8125 7.339844 C 24.90625 7.441406 24.964844 7.570312 24.964844 7.710938 C 24.964844 7.863281 24.90625 8 24.804688 8.09375 C 24.707031 8.191406 24.578125 8.25 24.425781 8.25 C 24.277344 8.25 24.148438 8.191406 24.046875 8.09375 Z M 24.097656 7.710938 C 24.097656 7.804688 24.132812 7.882812 24.191406 7.941406 C 24.246094 8 24.332031 8.035156 24.417969 8.035156 C 24.511719 8.035156 24.589844 8 24.648438 7.941406 C 24.707031 7.882812 24.742188 7.796875 24.742188 7.710938 C 24.742188 7.625 24.707031 7.546875 24.648438 7.484375 L 24.640625 7.476562 C 24.585938 7.417969 24.5 7.382812 24.414062 7.382812 C 24.328125 7.382812 24.242188 7.417969 24.183594 7.476562 C 24.132812 7.539062 24.097656 7.621094 24.097656 7.710938 Z M 28.621094 19.351562 Z M 29.15625 19.890625 C 29.15625 20.039062 29.097656 20.175781 29 20.269531 C 28.898438 20.371094 28.769531 20.425781 28.621094 20.425781 C 28.46875 20.425781 28.332031 20.371094 28.238281 20.269531 C 28.140625 20.167969 28.082031 20.039062 28.082031 19.890625 C 28.082031 19.738281 28.140625 19.601562 28.238281 19.507812 C 28.339844 19.410156 28.46875 19.351562 28.621094 19.351562 C 28.769531 19.351562 28.90625 19.410156 29 19.507812 L 29.007812 19.515625 C 29.097656 19.617188 29.15625 19.746094 29.15625 19.890625 Z M 28.941406 19.890625 C 28.941406 19.804688 28.90625 19.722656 28.847656 19.660156 L 28.839844 19.652344 C 28.785156 19.59375 28.699219 19.558594 28.613281 19.558594 C 28.527344 19.558594 28.441406 19.59375 28.382812 19.652344 C 28.324219 19.710938 28.289062 19.796875 28.289062 19.882812 C 28.289062 19.976562 28.324219 20.054688 28.382812 20.109375 C 28.441406 20.167969 28.527344 20.203125 28.613281 20.203125 C 28.707031 20.203125 28.785156 20.167969 28.839844 20.109375 C 28.90625 20.066406 28.941406 19.980469 28.941406 19.890625 Z M 7.253906 0.316406 Z M 6.867188 1.242188 C 6.769531 1.140625 6.710938 1.011719 6.710938 0.859375 C 6.710938 0.710938 6.769531 0.574219 6.867188 0.480469 C 6.96875 0.375 7.105469 0.316406 7.253906 0.316406 C 7.40625 0.316406 7.542969 0.375 7.636719 0.472656 L 7.640625 0.480469 C 7.734375 0.582031 7.792969 0.710938 7.792969 0.855469 C 7.792969 1.003906 7.734375 1.140625 7.636719 1.234375 C 7.535156 1.335938 7.40625 1.390625 7.253906 1.390625 C 7.105469 1.398438 6.96875 1.335938 6.867188 1.242188 Z M 6.925781 0.855469 C 6.925781 0.945312 6.960938 1.027344 7.019531 1.082031 C 7.074219 1.140625 7.160156 1.175781 7.246094 1.175781 C 7.339844 1.175781 7.417969 1.140625 7.476562 1.082031 C 7.535156 1.027344 7.570312 0.941406 7.570312 0.855469 C 7.570312 0.769531 7.535156 0.6875 7.476562 0.625 L 7.46875 0.617188 C 7.414062 0.558594 7.328125 0.523438 7.242188 0.523438 C 7.15625 0.523438 7.070312 0.558594 7.011719 0.617188 C 6.960938 0.683594 6.925781 0.769531 6.925781 0.855469 Z M 18.972656 7.089844 C 18.742188 6.859375 18.429688 6.714844 18.078125 6.714844 L 18.078125 6.5 L 18.097656 6.5 C 18.441406 6.496094 18.75 6.351562 18.972656 6.128906 C 19.203125 5.898438 19.34375 5.582031 19.34375 5.234375 L 19.558594 5.234375 C 19.558594 5.582031 19.703125 5.898438 19.933594 6.128906 C 20.164062 6.359375 20.476562 6.5 20.828125 6.5 L 20.828125 6.714844 C 20.476562 6.714844 20.164062 6.859375 19.933594 7.089844 C 19.703125 7.316406 19.558594 7.632812 19.558594 7.984375 L 19.34375 7.984375 C 19.34375 7.632812 19.203125 7.316406 18.972656 7.089844 Z M 18.628906 6.609375 C 18.816406 6.679688 18.988281 6.796875 19.125 6.9375 C 19.265625 7.082031 19.375 7.246094 19.453125 7.433594 C 19.53125 7.246094 19.640625 7.074219 19.78125 6.9375 C 19.925781 6.800781 20.089844 6.6875 20.277344 6.609375 C 20.089844 6.539062 19.917969 6.421875 19.78125 6.277344 C 19.640625 6.136719 19.53125 5.972656 19.453125 5.785156 C 19.382812 5.972656 19.265625 6.144531 19.125 6.277344 C 18.980469 6.421875 18.816406 6.539062 18.628906 6.609375 Z M 4.703125 16.535156 C 4.933594 16.765625 5.25 16.90625 5.597656 16.90625 L 5.597656 17.121094 C 5.25 17.121094 4.933594 17.265625 4.703125 17.496094 C 4.472656 17.722656 4.332031 18.039062 4.332031 18.390625 L 4.117188 18.390625 C 4.117188 18.039062 3.972656 17.722656 3.742188 17.496094 C 3.515625 17.265625 3.199219 17.121094 2.847656 17.121094 L 2.847656 16.90625 L 2.867188 16.90625 C 3.214844 16.902344 3.519531 16.757812 3.742188 16.535156 C 3.972656 16.304688 4.117188 15.988281 4.117188 15.640625 L 4.332031 15.640625 C 4.339844 15.988281 4.472656 16.304688 4.703125 16.535156 Z M 5.054688 17.015625 C 4.867188 16.945312 4.695312 16.828125 4.558594 16.683594 C 4.417969 16.542969 4.308594 16.378906 4.230469 16.191406 C 4.160156 16.378906 4.042969 16.550781 3.902344 16.683594 C 3.757812 16.828125 3.59375 16.9375 3.40625 17.015625 C 3.59375 17.085938 3.765625 17.203125 3.902344 17.34375 C 4.042969 17.488281 4.152344 17.652344 4.230469 17.839844 C 4.308594 17.652344 4.417969 17.480469 4.558594 17.34375 C 4.695312 17.203125 4.867188 17.085938 5.054688 17.015625 Z M 7.9375 12.269531 C 7.65625 12.957031 7.140625 13.273438 6.394531 13.222656 C 5.65625 13.171875 4.683594 12.738281 3.476562 11.933594 C 3.429688 11.898438 3.414062 11.832031 3.449219 11.785156 C 3.464844 11.769531 3.476562 11.753906 3.492188 11.746094 C 3.792969 11.605469 4.082031 11.476562 4.359375 11.375 C 5.261719 11.023438 6.007812 10.894531 6.59375 10.988281 C 7.199219 11.082031 7.636719 11.402344 7.894531 11.949219 C 7.914062 11.984375 7.929688 12.027344 7.941406 12.0625 C 8.464844 12.164062 8.867188 12.292969 9.167969 12.441406 C 8.910156 12.035156 8.636719 11.632812 8.34375 11.253906 C 7.503906 10.164062 6.515625 9.210938 5.390625 8.386719 C 5.3125 8.464844 5.207031 8.523438 5.089844 8.535156 C 5.011719 8.550781 4.925781 8.542969 4.855469 8.53125 C 4.167969 9.132812 3.601562 9.273438 3.242188 9.203125 C 3.089844 9.175781 2.96875 9.101562 2.890625 9.015625 C 2.804688 8.921875 2.761719 8.808594 2.769531 8.695312 C 2.777344 8.585938 2.824219 8.472656 2.917969 8.378906 C 2.839844 8.351562 2.777344 8.320312 2.710938 8.292969 C 2.554688 8.207031 2.4375 8.09375 2.375 7.96875 C 2.300781 7.847656 2.28125 7.710938 2.296875 7.582031 C 2.308594 7.449219 2.375 7.316406 2.46875 7.21875 C 2.460938 7.210938 2.445312 7.203125 2.4375 7.195312 C 2.222656 7.023438 2.066406 6.839844 1.964844 6.671875 C 1.851562 6.496094 1.800781 6.320312 1.824219 6.191406 C 1.828125 6.128906 1.859375 6.070312 1.894531 6.019531 C 1.910156 6.007812 1.914062 5.992188 1.929688 5.984375 C 2.074219 5.847656 2.351562 5.804688 2.734375 5.921875 C 2.867188 5.964844 3.019531 6.019531 3.183594 6.105469 C 3.15625 5.992188 3.140625 5.890625 3.148438 5.804688 C 3.15625 5.691406 3.199219 5.597656 3.257812 5.527344 C 3.320312 5.453125 3.40625 5.410156 3.507812 5.398438 C 3.613281 5.382812 3.734375 5.40625 3.871094 5.460938 C 4.035156 5.535156 4.222656 5.671875 4.410156 5.878906 C 4.417969 5.761719 4.445312 5.664062 4.480469 5.582031 C 4.523438 5.496094 4.582031 5.425781 4.644531 5.382812 C 4.71875 5.339844 4.796875 5.320312 4.882812 5.332031 C 4.96875 5.347656 5.046875 5.390625 5.125 5.46875 C 5.277344 5.628906 5.421875 5.933594 5.492188 6.378906 C 5.550781 6.730469 5.5625 7.167969 5.511719 7.699219 C 5.542969 7.753906 5.5625 7.8125 5.578125 7.878906 C 5.597656 7.992188 5.578125 8.113281 5.535156 8.214844 C 6.632812 9.015625 7.597656 9.941406 8.429688 10.988281 C 8.324219 10.308594 8.164062 9.5625 7.957031 8.746094 C 7.855469 8.746094 7.765625 8.738281 7.671875 8.722656 C 7.261719 8.660156 6.945312 8.445312 6.726562 8.070312 C 6.507812 7.710938 6.386719 7.21875 6.351562 6.574219 C 6.316406 5.898438 6.375 5.074219 6.53125 4.078125 C 6.53125 4.058594 6.546875 4.035156 6.558594 4.015625 C 6.601562 3.972656 6.667969 3.972656 6.710938 4.007812 C 7.097656 4.367188 7.425781 4.714844 7.707031 5.0625 C 8.257812 5.742188 8.601562 6.394531 8.71875 6.972656 C 8.832031 7.578125 8.710938 8.097656 8.316406 8.523438 C 8.273438 8.574219 8.222656 8.617188 8.164062 8.664062 C 8.417969 9.648438 8.59375 10.527344 8.703125 11.332031 C 9.046875 11.796875 9.371094 12.285156 9.664062 12.792969 C 9.664062 12.792969 9.671875 12.800781 9.671875 12.800781 C 9.675781 12.808594 9.675781 12.816406 9.683594 12.824219 C 10.0625 13.480469 10.402344 14.183594 10.695312 14.921875 C 10.714844 14.980469 10.6875 15.035156 10.636719 15.058594 C 10.582031 15.078125 10.523438 15.050781 10.5 15 C 10.207031 14.261719 9.871094 13.566406 9.492188 12.910156 C 9.261719 12.652344 8.753906 12.433594 7.9375 12.269531 Z M 7.878906 8.53125 C 7.851562 8.40625 7.8125 8.277344 7.777344 8.15625 C 7.484375 7.058594 7.105469 5.847656 6.644531 4.539062 C 6.539062 5.324219 6.503906 6.007812 6.53125 6.566406 C 6.566406 7.175781 6.683594 7.640625 6.875 7.964844 C 7.0625 8.277344 7.328125 8.457031 7.671875 8.515625 C 7.742188 8.523438 7.8125 8.53125 7.878906 8.53125 Z M 8.128906 8.386719 C 8.472656 8.019531 8.582031 7.554688 8.480469 7.023438 C 8.371094 6.480469 8.042969 5.855469 7.511719 5.203125 C 7.320312 4.96875 7.105469 4.722656 6.859375 4.480469 C 7.320312 5.800781 7.691406 7.003906 7.992188 8.097656 L 8.078125 8.4375 Z M 4.625 6.148438 C 4.640625 6.171875 4.652344 6.1875 4.667969 6.207031 C 4.875 6.515625 5.070312 6.929688 5.21875 7.441406 C 5.25 7.453125 5.277344 7.46875 5.304688 7.484375 C 5.335938 7.058594 5.320312 6.703125 5.269531 6.40625 C 5.207031 6.007812 5.082031 5.742188 4.960938 5.605469 C 4.917969 5.5625 4.882812 5.539062 4.839844 5.535156 C 4.8125 5.527344 4.78125 5.535156 4.753906 5.554688 C 4.71875 5.578125 4.6875 5.613281 4.667969 5.664062 C 4.617188 5.777344 4.597656 5.933594 4.625 6.148438 Z M 3.464844 6.265625 C 3.644531 6.378906 3.835938 6.515625 4.035156 6.679688 C 4.289062 6.882812 4.554688 7.125 4.824219 7.417969 C 4.847656 7.410156 4.867188 7.40625 4.898438 7.40625 C 4.925781 7.398438 4.953125 7.398438 4.984375 7.398438 C 4.839844 6.953125 4.667969 6.601562 4.488281 6.320312 C 4.253906 5.964844 3.992188 5.742188 3.777344 5.648438 C 3.6875 5.605469 3.601562 5.589844 3.527344 5.597656 C 3.476562 5.605469 3.433594 5.628906 3.40625 5.65625 C 3.378906 5.691406 3.355469 5.742188 3.347656 5.8125 C 3.347656 5.929688 3.378906 6.078125 3.464844 6.265625 Z M 2.5625 7.023438 C 2.960938 7.355469 3.59375 7.664062 4.445312 7.796875 C 4.46875 7.742188 4.488281 7.683594 4.523438 7.632812 C 4.554688 7.589844 4.589844 7.554688 4.632812 7.519531 C 4.375 7.253906 4.128906 7.023438 3.902344 6.839844 C 3.414062 6.4375 2.992188 6.214844 2.667969 6.113281 C 2.375 6.027344 2.167969 6.042969 2.074219 6.128906 L 2.058594 6.144531 C 2.042969 6.15625 2.039062 6.1875 2.03125 6.207031 C 2.015625 6.292969 2.050781 6.40625 2.128906 6.542969 C 2.222656 6.703125 2.367188 6.867188 2.5625 7.023438 Z M 2.804688 8.097656 C 2.90625 8.148438 3.027344 8.191406 3.167969 8.222656 C 3.167969 8.222656 3.175781 8.222656 3.175781 8.222656 C 3.484375 8.277344 3.902344 8.265625 4.445312 8.140625 C 4.4375 8.121094 4.429688 8.09375 4.425781 8.0625 C 4.425781 8.042969 4.417969 8.027344 4.417969 8.007812 C 3.648438 7.882812 3.046875 7.625 2.625 7.339844 C 2.546875 7.40625 2.503906 7.496094 2.488281 7.597656 C 2.480469 7.683594 2.496094 7.769531 2.539062 7.855469 C 2.597656 7.949219 2.683594 8.027344 2.804688 8.097656 Z M 4.644531 8.421875 C 4.609375 8.394531 4.582031 8.363281 4.554688 8.335938 C 3.972656 8.472656 3.519531 8.492188 3.175781 8.4375 C 3.039062 8.507812 2.976562 8.601562 2.96875 8.695312 C 2.96875 8.75 2.992188 8.816406 3.035156 8.867188 C 3.082031 8.921875 3.167969 8.964844 3.269531 8.988281 C 3.570312 9.046875 4.042969 8.929688 4.644531 8.421875 Z M 5.292969 8.179688 C 5.339844 8.097656 5.371094 8.007812 5.355469 7.90625 C 5.339844 7.8125 5.285156 7.726562 5.210938 7.675781 L 5.207031 7.667969 C 5.125 7.621094 5.035156 7.589844 4.933594 7.605469 C 4.832031 7.621094 4.753906 7.675781 4.695312 7.753906 C 4.644531 7.835938 4.617188 7.925781 4.632812 8.027344 C 4.644531 8.121094 4.703125 8.207031 4.773438 8.257812 L 4.78125 8.265625 C 4.859375 8.316406 4.953125 8.34375 5.054688 8.328125 C 5.15625 8.308594 5.234375 8.257812 5.292969 8.179688 Z M 4.007812 11.746094 C 5.550781 11.777344 6.773438 11.863281 7.691406 12.019531 C 7.460938 11.554688 7.082031 11.28125 6.566406 11.203125 C 6.015625 11.117188 5.304688 11.246094 4.4375 11.574219 C 4.296875 11.625 4.160156 11.683594 4.007812 11.746094 Z M 7.722656 12.234375 L 7.683594 12.226562 C 6.753906 12.070312 5.492188 11.976562 3.894531 11.957031 C 4.925781 12.613281 5.765625 12.964844 6.410156 13.015625 C 7.039062 13.058594 7.476562 12.800781 7.722656 12.234375 Z M 28.152344 14.757812 C 28.015625 15.417969 27.636719 15.996094 27.136719 16.441406 C 26.757812 16.777344 26.304688 17.035156 25.839844 17.1875 C 25.371094 17.335938 24.886719 17.378906 24.441406 17.289062 C 24.046875 17.207031 23.6875 17.023438 23.402344 16.722656 C 22.980469 16.949219 22.585938 17.257812 22.253906 17.703125 C 22.054688 18.9375 21.984375 20.289062 22.039062 21.757812 C 22.039062 21.816406 21.996094 21.867188 21.941406 21.867188 C 21.882812 21.867188 21.832031 21.824219 21.832031 21.765625 C 21.773438 20.277344 21.847656 18.90625 22.054688 17.652344 C 22.054688 17.644531 22.054688 17.636719 22.054688 17.632812 C 22.089844 17.417969 22.125 17.203125 22.175781 16.988281 C 22.203125 16.855469 22.234375 16.726562 22.261719 16.597656 C 22.269531 15.925781 22.199219 15.273438 22.039062 14.628906 C 21.859375 14.6875 21.695312 14.707031 21.546875 14.707031 C 21.28125 14.699219 21.050781 14.613281 20.851562 14.433594 C 20.664062 14.269531 20.507812 14.019531 20.382812 13.695312 L 20.382812 13.691406 C 20.148438 13.050781 20.039062 12.097656 20.070312 10.832031 C 20.070312 10.832031 20.070312 10.824219 20.070312 10.824219 C 20.070312 10.824219 20.070312 10.816406 20.070312 10.816406 C 20.070312 10.808594 20.070312 10.808594 20.070312 10.800781 C 20.070312 10.800781 20.070312 10.792969 20.070312 10.792969 C 20.070312 10.785156 20.070312 10.785156 20.078125 10.78125 C 20.078125 10.78125 20.078125 10.78125 20.078125 10.773438 C 20.078125 10.765625 20.082031 10.765625 20.082031 10.757812 C 20.082031 10.757812 20.089844 10.75 20.089844 10.75 C 20.089844 10.75 20.097656 10.742188 20.097656 10.742188 C 20.132812 10.714844 20.175781 10.714844 20.21875 10.730469 C 20.414062 10.832031 20.59375 10.929688 20.757812 11.039062 C 21.554688 11.53125 22.074219 12.054688 22.320312 12.59375 C 22.578125 13.144531 22.550781 13.703125 22.253906 14.261719 C 22.234375 14.304688 22.210938 14.34375 22.183594 14.386719 C 22.191406 14.40625 22.199219 14.429688 22.199219 14.449219 L 22.203125 14.464844 C 22.320312 14.921875 22.398438 15.394531 22.433594 15.867188 C 22.714844 14.902344 23.09375 14.019531 23.566406 13.222656 C 23.558594 13.214844 23.546875 13.210938 23.539062 13.195312 C 23.4375 13.085938 23.378906 12.9375 23.378906 12.78125 L 23.378906 12.765625 C 23.378906 12.699219 23.394531 12.644531 23.417969 12.59375 C 22.808594 11.699219 22.679688 11.003906 22.757812 10.601562 C 22.785156 10.449219 22.851562 10.335938 22.929688 10.257812 C 23.015625 10.171875 23.128906 10.140625 23.246094 10.164062 C 23.351562 10.183594 23.464844 10.257812 23.574219 10.386719 C 23.609375 10.257812 23.644531 10.140625 23.695312 10.042969 C 23.796875 9.828125 23.933594 9.691406 24.0625 9.65625 C 24.097656 9.648438 24.125 9.640625 24.15625 9.648438 C 24.285156 9.65625 24.398438 9.761719 24.457031 9.96875 C 24.476562 10.035156 24.484375 10.105469 24.5 10.183594 C 24.589844 10.027344 24.691406 9.898438 24.792969 9.804688 C 24.941406 9.65625 25.101562 9.582031 25.238281 9.582031 C 25.386719 9.582031 25.515625 9.667969 25.582031 9.839844 C 25.660156 10.050781 25.660156 10.398438 25.515625 10.886719 C 25.550781 10.859375 25.585938 10.835938 25.617188 10.816406 C 25.832031 10.671875 26.023438 10.585938 26.191406 10.550781 C 26.367188 10.515625 26.519531 10.535156 26.625 10.601562 C 26.675781 10.628906 26.714844 10.664062 26.742188 10.707031 L 26.75 10.714844 C 26.769531 10.742188 26.785156 10.773438 26.792969 10.808594 C 26.84375 10.960938 26.804688 11.167969 26.664062 11.390625 C 26.578125 11.523438 26.449219 11.675781 26.277344 11.828125 C 26.492188 11.820312 26.675781 11.863281 26.820312 11.933594 C 26.976562 12.011719 27.085938 12.132812 27.128906 12.269531 C 27.144531 12.304688 27.144531 12.34375 27.148438 12.378906 C 27.148438 12.40625 27.148438 12.429688 27.144531 12.457031 C 27.121094 12.628906 26.992188 12.792969 26.75 12.929688 C 26.519531 13.050781 26.183594 13.136719 25.714844 13.160156 C 25.371094 13.171875 24.949219 13.160156 24.441406 13.085938 C 24.414062 13.128906 24.382812 13.171875 24.347656 13.210938 C 24.242188 13.308594 24.097656 13.375 23.933594 13.367188 L 23.917969 13.367188 C 23.851562 13.367188 23.789062 13.34375 23.722656 13.324219 C 23.09375 14.398438 22.636719 15.625 22.347656 17 C 22.335938 17.078125 22.3125 17.164062 22.296875 17.246094 C 22.648438 16.855469 23.042969 16.59375 23.464844 16.398438 C 23.890625 15.710938 24.476562 15.214844 25.238281 14.914062 C 25.996094 14.613281 26.929688 14.507812 28.03125 14.59375 C 28.074219 14.601562 28.117188 14.628906 28.125 14.671875 C 28.125 14.679688 28.125 14.6875 28.125 14.691406 C 28.125 14.691406 28.125 14.699219 28.125 14.699219 C 28.125 14.707031 28.125 14.707031 28.125 14.714844 C 28.152344 14.757812 28.152344 14.757812 28.152344 14.757812 Z M 24.226562 13.085938 C 24.289062 13.023438 24.339844 12.929688 24.339844 12.828125 L 24.339844 12.824219 C 24.339844 12.714844 24.304688 12.621094 24.242188 12.550781 C 24.175781 12.476562 24.082031 12.433594 23.980469 12.433594 C 23.882812 12.433594 23.789062 12.472656 23.71875 12.535156 C 23.652344 12.601562 23.601562 12.695312 23.601562 12.792969 L 23.601562 12.800781 C 23.601562 12.910156 23.636719 13 23.703125 13.074219 C 23.765625 13.136719 23.851562 13.1875 23.953125 13.1875 L 23.960938 13.1875 C 24.0625 13.1875 24.15625 13.152344 24.226562 13.085938 Z M 26.28125 12.0625 C 26.167969 12.070312 26.046875 12.089844 25.917969 12.128906 C 25.574219 12.347656 25.121094 12.566406 24.546875 12.757812 C 24.546875 12.78125 24.546875 12.800781 24.546875 12.824219 L 24.546875 12.835938 C 24.546875 12.867188 24.542969 12.886719 24.542969 12.914062 C 25.007812 12.972656 25.402344 12.996094 25.722656 12.972656 C 26.160156 12.953125 26.46875 12.871094 26.671875 12.765625 C 26.847656 12.671875 26.941406 12.558594 26.957031 12.457031 C 26.957031 12.441406 26.957031 12.429688 26.957031 12.414062 C 26.957031 12.390625 26.949219 12.378906 26.949219 12.355469 C 26.921875 12.277344 26.855469 12.199219 26.75 12.148438 C 26.625 12.089844 26.46875 12.054688 26.28125 12.0625 Z M 24.457031 12.484375 C 24.46875 12.507812 24.484375 12.527344 24.5 12.558594 C 25.09375 12.355469 25.542969 12.132812 25.875 11.90625 C 26.183594 11.699219 26.390625 11.480469 26.503906 11.304688 C 26.613281 11.136719 26.640625 10.996094 26.613281 10.894531 C 26.605469 10.878906 26.597656 10.867188 26.589844 10.851562 L 26.589844 10.84375 C 26.578125 10.824219 26.5625 10.808594 26.539062 10.792969 C 26.476562 10.757812 26.382812 10.742188 26.253906 10.773438 C 26.117188 10.800781 25.945312 10.875 25.757812 11.003906 C 25.371094 11.265625 24.929688 11.734375 24.457031 12.484375 Z M 24.511719 10.671875 C 24.511719 10.679688 24.503906 10.6875 24.503906 10.6875 C 24.339844 11.082031 24.210938 11.605469 24.160156 12.257812 C 24.210938 12.277344 24.261719 12.300781 24.304688 12.328125 C 24.621094 11.832031 24.929688 11.453125 25.207031 11.179688 C 25.445312 10.558594 25.480469 10.148438 25.394531 9.941406 C 25.359375 9.855469 25.308594 9.8125 25.242188 9.8125 C 25.164062 9.8125 25.058594 9.863281 24.949219 9.96875 C 24.800781 10.121094 24.648438 10.351562 24.511719 10.671875 Z M 23.722656 10.878906 C 23.695312 11.253906 23.722656 11.710938 23.859375 12.234375 C 23.890625 12.226562 23.917969 12.226562 23.945312 12.226562 C 23.996094 11.566406 24.132812 11.03125 24.296875 10.621094 C 24.3125 10.363281 24.296875 10.179688 24.253906 10.050781 C 24.21875 9.933594 24.175781 9.875 24.140625 9.875 C 24.132812 9.875 24.125 9.875 24.117188 9.875 C 24.046875 9.898438 23.96875 9.992188 23.890625 10.148438 C 23.816406 10.320312 23.753906 10.570312 23.722656 10.878906 Z M 23.550781 12.40625 C 23.558594 12.398438 23.566406 12.386719 23.582031 12.378906 C 23.609375 12.347656 23.636719 12.328125 23.675781 12.304688 C 23.53125 11.746094 23.496094 11.253906 23.523438 10.859375 C 23.53125 10.800781 23.53125 10.75 23.539062 10.699219 C 23.4375 10.5 23.332031 10.398438 23.230469 10.378906 C 23.179688 10.371094 23.136719 10.386719 23.09375 10.421875 C 23.042969 10.464844 23.007812 10.542969 22.984375 10.652344 C 22.90625 11.003906 23.023438 11.609375 23.550781 12.40625 Z M 20.648438 11.230469 C 20.628906 11.21875 20.605469 11.210938 20.59375 11.195312 C 21.171875 11.960938 21.625 12.757812 21.933594 13.582031 C 21.996094 13.753906 22.0625 13.933594 22.113281 14.113281 C 22.335938 13.640625 22.347656 13.167969 22.132812 12.699219 C 21.902344 12.199219 21.410156 11.703125 20.648438 11.230469 Z M 21.984375 14.429688 C 21.910156 14.167969 21.832031 13.910156 21.730469 13.652344 C 21.402344 12.785156 20.914062 11.941406 20.269531 11.132812 C 20.261719 12.226562 20.371094 13.058594 20.578125 13.625 L 20.578125 13.632812 C 20.6875 13.917969 20.820312 14.140625 20.988281 14.285156 C 21.144531 14.421875 21.332031 14.5 21.546875 14.5 C 21.683594 14.507812 21.824219 14.476562 21.984375 14.429688 Z M 23.851562 16.277344 C 24.285156 16.113281 24.734375 15.996094 25.195312 15.882812 C 26.082031 15.660156 26.992188 15.429688 27.773438 14.816406 C 26.820312 14.765625 26.011719 14.871094 25.335938 15.144531 C 24.726562 15.386719 24.234375 15.769531 23.851562 16.277344 Z M 27.867188 15.023438 C 27.058594 15.640625 26.148438 15.867188 25.25 16.089844 C 24.675781 16.234375 24.117188 16.378906 23.601562 16.621094 C 23.851562 16.863281 24.15625 17.007812 24.484375 17.078125 C 24.890625 17.164062 25.34375 17.121094 25.773438 16.988281 C 26.210938 16.84375 26.632812 16.605469 27 16.285156 C 27.386719 15.941406 27.695312 15.511719 27.867188 15.023438 Z M 27.867188 15.023438 " fill-opacity="1" fill-rule="nonzero"/></g></svg>