<svg xmlns="http://www.w3.org/2000/svg" xmlns:xlink="http://www.w3.org/1999/xlink" width="40" zoomAndPan="magnify" viewBox="0 0 30 30.000001" height="40" preserveAspectRatio="xMidYMid meet" version="1.0"><defs><clipPath id="2b2695dc8a"><path d="M 1.046875 0 L 28.628906 0 L 28.628906 29.03125 L 1.046875 29.03125 Z M 1.046875 0 " clip-rule="nonzero"/></clipPath></defs><g clip-path="url(#2b2695dc8a)"><path fill="#000000" d="M 18.753906 27.78125 L 18.753906 22.058594 C 18.753906 21.660156 18.992188 21.324219 19.332031 21.179688 C 19.347656 20.820312 19.378906 20.46875 19.417969 20.335938 C 19.589844 19.769531 19.992188 19.40625 20.605469 19.269531 C 20.617188 19.097656 20.640625 18.886719 20.679688 18.691406 C 20.726562 18.464844 20.796875 18.257812 20.886719 18.117188 C 21.152344 17.699219 21.605469 17.492188 22.027344 17.421875 C 22.070312 17.140625 22.109375 16.917969 22.320312 16.632812 C 22.558594 16.316406 22.785156 16.160156 23.066406 16.027344 C 23.320312 15.910156 23.625 15.890625 23.625 15.890625 C 23.839844 15.875 24.03125 16.035156 24.054688 16.253906 C 24.058594 16.28125 24.085938 16.628906 24.3125 16.945312 C 24.402344 17.074219 24.550781 17.199219 24.671875 17.25 C 24.839844 17.320312 25.203125 17.304688 25.378906 17.347656 C 25.8125 17.445312 25.964844 17.519531 26.214844 17.796875 C 26.382812 17.980469 26.542969 18.304688 26.628906 18.578125 C 26.683594 18.746094 26.722656 19.035156 26.746094 19.261719 C 27.367188 19.402344 27.917969 20.054688 28.015625 20.539062 C 28.039062 20.65625 28.054688 20.914062 28.0625 21.183594 C 28.394531 21.332031 28.625 21.667969 28.625 22.058594 L 28.625 27.78125 C 28.625 28.113281 28.496094 28.429688 28.265625 28.664062 C 28.035156 28.898438 27.71875 29.03125 27.390625 29.03125 L 19.988281 29.03125 C 19.660156 29.03125 19.347656 28.898438 19.113281 28.664062 C 18.882812 28.429688 18.753906 28.113281 18.753906 27.78125 Z M 20.144531 21.109375 L 27.246094 21.109375 C 27.242188 20.933594 27.234375 20.78125 27.21875 20.703125 C 27.167969 20.457031 26.882812 20.132812 26.5625 20.066406 C 26.496094 20.050781 26.425781 20.042969 26.351562 20.035156 L 25.289062 20.035156 C 25.183594 20.039062 25.082031 20.039062 24.984375 20.035156 C 24.761719 20.03125 24.585938 19.84375 24.589844 19.621094 C 24.589844 19.394531 24.773438 19.214844 24.996094 19.214844 L 25.359375 19.214844 C 25.542969 19.210938 25.734375 19.203125 25.925781 19.199219 C 25.910156 19.0625 25.886719 18.921875 25.855469 18.832031 C 25.804688 18.664062 25.714844 18.464844 25.613281 18.351562 C 25.492188 18.214844 25.410156 18.195312 25.199219 18.148438 C 24.992188 18.101562 24.570312 18.09375 24.371094 18.015625 C 24.128906 17.917969 23.828125 17.675781 23.652344 17.425781 C 23.5 17.214844 23.40625 16.992188 23.34375 16.804688 C 23.207031 16.875 23.089844 16.964844 22.972656 17.125 C 22.878906 17.253906 22.851562 17.355469 22.835938 17.472656 C 22.816406 17.597656 22.804688 17.730469 22.769531 17.886719 C 22.730469 18.078125 22.566406 18.214844 22.371094 18.214844 C 22.109375 18.214844 21.75 18.28125 21.570312 18.5625 C 21.503906 18.664062 21.476562 18.839844 21.453125 19.003906 C 21.441406 19.070312 21.433594 19.136719 21.429688 19.199219 C 21.746094 19.203125 22.078125 19.222656 22.367188 19.214844 C 22.59375 19.207031 22.777344 19.386719 22.785156 19.613281 C 22.792969 19.839844 22.613281 20.03125 22.390625 20.035156 C 21.96875 20.046875 21.460938 19.996094 21.03125 20.035156 C 20.953125 20.039062 20.878906 20.050781 20.808594 20.066406 C 20.5 20.128906 20.28125 20.292969 20.195312 20.578125 C 20.167969 20.664062 20.152344 20.875 20.144531 21.109375 Z M 27.8125 23.832031 L 19.566406 23.832031 L 19.566406 27.78125 C 19.566406 27.894531 19.609375 28.003906 19.691406 28.082031 C 19.769531 28.160156 19.875 28.207031 19.988281 28.207031 L 27.390625 28.207031 C 27.503906 28.207031 27.609375 28.160156 27.691406 28.082031 C 27.769531 28.003906 27.8125 27.894531 27.8125 27.78125 Z M 27.6875 21.929688 L 19.691406 21.929688 C 19.621094 21.929688 19.566406 21.988281 19.566406 22.058594 L 19.566406 23.007812 C 19.566406 23.007812 27.8125 23.007812 27.8125 23.007812 L 27.8125 22.058594 C 27.8125 21.988281 27.757812 21.929688 27.6875 21.929688 Z M 17.65625 26.171875 C 17.863281 26.078125 18.101562 26.171875 18.195312 26.378906 C 18.289062 26.585938 18.195312 26.828125 17.992188 26.921875 C 17.933594 26.949219 17.875 26.972656 17.820312 27 C 16.441406 27.597656 14.945312 27.929688 13.382812 27.929688 C 10.097656 27.929688 7.105469 26.472656 4.890625 24.089844 C 4.777344 23.96875 4.746094 23.785156 4.820312 23.632812 L 5.453125 22.261719 L 3.867188 22.464844 C 3.714844 22.484375 3.5625 22.414062 3.476562 22.285156 C 1.953125 19.964844 1.046875 17.082031 1.046875 13.964844 C 1.046875 10.882812 1.929688 8.035156 3.425781 5.726562 C 3.511719 5.59375 3.664062 5.523438 3.816406 5.542969 C 3.816406 5.542969 5.453125 5.753906 5.453125 5.753906 L 4.792969 4.328125 C 4.722656 4.175781 4.75 3.996094 4.863281 3.871094 C 7.082031 1.472656 10.082031 0.00390625 13.382812 0.00390625 C 16.648438 0.00390625 19.621094 1.441406 21.832031 3.792969 C 21.945312 3.914062 21.976562 4.097656 21.90625 4.25 C 21.90625 4.25 21.207031 5.753906 21.207031 5.753906 L 22.945312 5.53125 C 23.097656 5.511719 23.25 5.582031 23.335938 5.710938 C 24.832031 8.023438 25.722656 10.878906 25.722656 13.964844 C 25.722656 14.722656 25.667969 15.464844 25.566406 16.1875 C 25.535156 16.414062 25.328125 16.570312 25.105469 16.539062 C 24.882812 16.503906 24.730469 16.296875 24.761719 16.070312 C 24.859375 15.386719 24.90625 14.683594 24.90625 13.964844 C 24.90625 11.140625 24.125 8.523438 22.792969 6.378906 L 20.578125 6.660156 C 20.429688 6.679688 20.285156 6.617188 20.199219 6.496094 C 20.109375 6.375 20.09375 6.214844 20.160156 6.078125 C 20.160156 6.078125 21.046875 4.15625 21.046875 4.15625 C 19.011719 2.089844 16.328125 0.824219 13.382812 0.824219 C 10.40625 0.824219 7.691406 2.117188 5.644531 4.234375 L 6.5 6.078125 C 6.5625 6.214844 6.550781 6.375 6.460938 6.496094 C 6.375 6.617188 6.230469 6.679688 6.082031 6.660156 C 6.082031 6.660156 3.96875 6.390625 3.96875 6.390625 C 2.640625 8.535156 1.859375 11.148438 1.859375 13.964844 C 1.859375 16.816406 2.660156 19.460938 4.019531 21.617188 L 6.085938 21.351562 C 6.230469 21.335938 6.375 21.398438 6.464844 21.519531 C 6.550781 21.640625 6.566406 21.800781 6.503906 21.9375 C 6.503906 21.9375 5.671875 23.726562 5.671875 23.726562 C 7.714844 25.824219 10.417969 27.105469 13.382812 27.105469 C 14.832031 27.105469 16.21875 26.800781 17.496094 26.242188 C 17.550781 26.21875 17.605469 26.195312 17.65625 26.171875 Z M 8.664062 7.972656 C 10.335938 7.972656 11.644531 9.058594 11.644531 10.3125 C 11.644531 11.566406 10.335938 12.652344 8.664062 12.652344 C 6.992188 12.652344 5.683594 11.566406 5.683594 10.3125 C 5.683594 9.058594 6.992188 7.972656 8.664062 7.972656 Z M 8.664062 8.792969 C 7.933594 8.792969 7.277344 9.050781 6.875 9.460938 C 6.640625 9.703125 6.496094 9.992188 6.496094 10.3125 C 6.496094 10.632812 6.640625 10.921875 6.875 11.160156 C 7.277344 11.574219 7.933594 11.828125 8.664062 11.828125 C 9.394531 11.828125 10.050781 11.574219 10.453125 11.160156 C 10.683594 10.921875 10.832031 10.632812 10.832031 10.3125 C 10.832031 9.992188 10.683594 9.703125 10.453125 9.460938 C 10.050781 9.050781 9.394531 8.792969 8.664062 8.792969 Z M 13.382812 18.359375 C 14.738281 18.359375 15.933594 18.707031 16.679688 19.222656 C 17.269531 19.632812 17.589844 20.15625 17.589844 20.699219 C 17.589844 21.246094 17.269531 21.769531 16.679688 22.179688 C 15.933594 22.695312 14.738281 23.039062 13.382812 23.039062 C 12.03125 23.039062 10.832031 22.695312 10.089844 22.179688 C 9.5 21.769531 9.179688 21.246094 9.179688 20.699219 C 9.179688 20.15625 9.5 19.632812 10.089844 19.222656 C 10.832031 18.707031 12.03125 18.359375 13.382812 18.359375 Z M 13.382812 19.183594 C 12.222656 19.183594 11.1875 19.457031 10.550781 19.902344 C 10.21875 20.128906 9.992188 20.394531 9.992188 20.699219 C 9.992188 21.007812 10.21875 21.269531 10.550781 21.5 C 11.1875 21.941406 12.222656 22.21875 13.382812 22.21875 C 14.546875 22.21875 15.582031 21.941406 16.21875 21.5 C 16.550781 21.269531 16.777344 21.007812 16.777344 20.699219 C 16.777344 20.394531 16.550781 20.128906 16.21875 19.902344 C 15.582031 19.457031 14.546875 19.183594 13.382812 19.183594 Z M 18.105469 7.972656 C 19.777344 7.972656 21.085938 9.058594 21.085938 10.3125 C 21.085938 11.566406 19.777344 12.652344 18.105469 12.652344 C 16.433594 12.652344 15.125 11.566406 15.125 10.3125 C 15.125 9.058594 16.433594 7.972656 18.105469 7.972656 Z M 18.105469 8.792969 C 17.371094 8.792969 16.71875 9.050781 16.316406 9.460938 C 16.082031 9.703125 15.9375 9.992188 15.9375 10.3125 C 15.9375 10.632812 16.082031 10.921875 16.316406 11.160156 C 16.71875 11.574219 17.371094 11.828125 18.105469 11.828125 C 18.835938 11.828125 19.488281 11.574219 19.890625 11.160156 C 20.125 10.921875 20.273438 10.632812 20.273438 10.3125 C 20.273438 9.992188 20.125 9.703125 19.890625 9.460938 C 19.488281 9.050781 18.835938 8.792969 18.105469 8.792969 Z M 11.714844 13.261719 C 11.773438 13.042969 11.996094 12.914062 12.214844 12.972656 C 12.429688 13.03125 12.558594 13.257812 12.5 13.476562 C 12.5 13.476562 12.386719 13.894531 12.25 14.339844 C 12.113281 14.792969 11.929688 15.277344 11.992188 15.648438 C 12.015625 15.789062 12.066406 15.863281 12.132812 15.871094 C 12.332031 15.898438 12.472656 15.890625 12.664062 15.824219 C 12.941406 15.730469 13.242188 15.632812 13.382812 15.632812 C 13.527344 15.632812 13.824219 15.730469 14.105469 15.824219 C 14.296875 15.890625 14.433594 15.898438 14.632812 15.871094 C 14.699219 15.863281 14.753906 15.789062 14.777344 15.648438 C 14.839844 15.277344 14.65625 14.792969 14.515625 14.339844 C 14.378906 13.894531 14.269531 13.476562 14.269531 13.476562 C 14.210938 13.257812 14.335938 13.03125 14.554688 12.972656 C 14.769531 12.914062 14.996094 13.042969 15.054688 13.261719 C 15.054688 13.261719 15.160156 13.664062 15.292969 14.097656 C 15.472656 14.675781 15.660156 15.308594 15.578125 15.789062 C 15.46875 16.433594 15.050781 16.644531 14.742188 16.6875 C 14.40625 16.734375 14.171875 16.71875 13.839844 16.605469 C 13.660156 16.542969 13.476562 16.457031 13.382812 16.457031 C 13.292969 16.457031 13.105469 16.542969 12.925781 16.605469 C 12.597656 16.71875 12.363281 16.734375 12.023438 16.6875 C 11.71875 16.644531 11.296875 16.433594 11.1875 15.789062 C 11.109375 15.308594 11.296875 14.675781 11.472656 14.097656 C 11.605469 13.664062 11.714844 13.261719 11.714844 13.261719 Z M 11.714844 13.261719 " fill-opacity="1" fill-rule="evenodd"/></g></svg>